<svg width="628.1" height="446.6" xmlns="http://www.w3.org/2000/svg" xmlns:xlink="http://www.w3.org/1999/xlink"><line x1="16.5" y1="7.5" x2="16.5" y2="32.0" style="stroke:black; stroke-width:1px;" />
<line x1="16.5" y1="39.5" x2="6.0" y2="64.0" style="stroke:black; stroke-width:1px;" />
<line x1="16.5" y1="39.5" x2="27.0" y2="64.0" style="stroke:black; stroke-width:1px;" />
<line x1="27.0" y1="71.5" x2="8.5" y2="96.0" style="stroke:black; stroke-width:1px;" />
<line x1="27.0" y1="71.5" x2="25.5" y2="96.0" style="stroke:black; stroke-width:1px;" />
<line x1="27.0" y1="71.5" x2="45.5" y2="96.0" style="stroke:black; stroke-width:1px;" />
<line x1="45.5" y1="103.5" x2="35.5" y2="128.0" style="stroke:black; stroke-width:1px;" />
<line x1="45.5" y1="103.5" x2="55.5" y2="128.0" style="stroke:black; stroke-width:1px;" />
<line x1="55.5" y1="135.5" x2="45.5" y2="160.0" style="stroke:black; stroke-width:1px;" />
<line x1="55.5" y1="135.5" x2="65.5" y2="160.0" style="stroke:black; stroke-width:1px;" />
<line x1="65.5" y1="167.5" x2="55.25" y2="192.0" style="stroke:black; stroke-width:1px;" />
<line x1="65.5" y1="167.5" x2="75.75" y2="192.0" style="stroke:black; stroke-width:1px;" />
<line x1="75.75" y1="199.5" x2="75.75" y2="224.0" style="stroke:black; stroke-width:1px;" />
<rect x="67.75" y="192.0" width="16.0" height="15.0" style="fill:orange; stroke:rgb(0,0,0);" rx="1"/>
<text x="69" y="201" style="font-family:sans-serif;font-size:10px;">
s1
</text>
<rect x="30.5" y="128.0" width="10.0" height="15.0" style="fill:orange; stroke:rgb(0,0,0);" rx="1"/>
<text x="32" y="137" style="font-family:sans-serif;font-size:10px;">
#
</text>
<rect x="3.5" y="96.0" width="10.0" height="15.0" style="fill:orange; stroke:rgb(0,0,0);" rx="1"/>
<text x="5" y="105" style="font-family:sans-serif;font-size:10px;">
x
</text>
<rect x="19.0" y="64.0" width="16.0" height="15.0" style="fill:orange; stroke:rgb(0,0,0);" rx="1"/>
<text x="21" y="73" style="font-family:sans-serif;font-size:10px;">
s0
</text>
<rect x="57.5" y="160.0" width="16.0" height="15.0" style="fill:orange; stroke:rgb(0,0,0);" rx="1"/>
<text x="59" y="169" style="font-family:sans-serif;font-size:10px;">
s0
</text>
<rect x="49.75" y="192.0" width="11.0" height="15.0" style="fill:orange; stroke:rgb(0,0,0);" rx="1"/>
<text x="51" y="201" style="font-family:sans-serif;font-size:10px;">
B
</text>
<rect x="3.5" y="32.0" width="26.0" height="15.0" style="fill:orange; stroke:rgb(0,0,0);" rx="1"/>
<text x="5" y="41" style="font-family:sans-serif;font-size:10px;">
start
</text>
<rect x="47.5" y="128.0" width="16.0" height="15.0" style="fill:orange; stroke:rgb(0,0,0);" rx="1"/>
<text x="49" y="137" style="font-family:sans-serif;font-size:10px;">
s0
</text>
<rect x="20.5" y="96.0" width="10.0" height="15.0" style="fill:orange; stroke:rgb(0,0,0);" rx="1"/>
<text x="22" y="105" style="font-family:sans-serif;font-size:10px;">
#
</text>
<rect x="0.0" y="64.0" width="12.0" height="15.0" style="fill:orange; stroke:rgb(0,0,0);" rx="1"/>
<text x="2" y="73" style="font-family:sans-serif;font-size:10px;">
A
</text>
<rect x="3.5" y="0.0" width="26.0" height="15.0" style="fill:orange; stroke:rgb(0,0,0);" rx="1"/>
<text x="5" y="9" style="font-family:sans-serif;font-size:10px;">
expr
</text>
<rect x="37.5" y="96.0" width="16.0" height="15.0" style="fill:orange; stroke:rgb(0,0,0);" rx="1"/>
<text x="39" y="105" style="font-family:sans-serif;font-size:10px;">
s0
</text>
<rect x="40.5" y="160.0" width="10.0" height="15.0" style="fill:orange; stroke:rgb(0,0,0);" rx="1"/>
<text x="42" y="169" style="font-family:sans-serif;font-size:10px;">
#
</text>
<rect x="57.75" y="224.0" width="36.0" height="15.0" style="fill:orange; stroke:rgb(0,0,0);" rx="1"/>
<text x="59" y="233" style="font-family:sans-serif;font-size:10px;">
&lt;EOF&gt;
</text>
</svg>