<svg width="644.6" height="420.20000000000005" xmlns="http://www.w3.org/2000/svg" xmlns:xlink="http://www.w3.org/1999/xlink"><line x1="27.5" y1="7.5" x2="27.5" y2="32.0" style="stroke:black; stroke-width:1px;" />
<line x1="27.5" y1="39.5" x2="6.0" y2="64.0" style="stroke:black; stroke-width:1px;" />
<line x1="27.5" y1="39.5" x2="24.0" y2="64.0" style="stroke:black; stroke-width:1px;" />
<line x1="27.5" y1="39.5" x2="49.0" y2="64.0" style="stroke:black; stroke-width:1px;" />
<line x1="49.0" y1="71.5" x2="36.5" y2="96.0" style="stroke:black; stroke-width:1px;" />
<line x1="49.0" y1="71.5" x2="61.5" y2="96.0" style="stroke:black; stroke-width:1px;" />
<line x1="61.5" y1="103.5" x2="49.0" y2="128.0" style="stroke:black; stroke-width:1px;" />
<line x1="61.5" y1="103.5" x2="74.0" y2="128.0" style="stroke:black; stroke-width:1px;" />
<line x1="74.0" y1="135.5" x2="61.5" y2="160.0" style="stroke:black; stroke-width:1px;" />
<line x1="74.0" y1="135.5" x2="86.5" y2="160.0" style="stroke:black; stroke-width:1px;" />
<line x1="86.5" y1="167.5" x2="74.0" y2="192.0" style="stroke:black; stroke-width:1px;" />
<line x1="86.5" y1="167.5" x2="99.0" y2="192.0" style="stroke:black; stroke-width:1px;" />
<line x1="99.0" y1="199.5" x2="86.5" y2="224.0" style="stroke:black; stroke-width:1px;" />
<line x1="99.0" y1="199.5" x2="111.5" y2="224.0" style="stroke:black; stroke-width:1px;" />
<line x1="111.5" y1="231.5" x2="99.0" y2="256.0" style="stroke:black; stroke-width:1px;" />
<line x1="111.5" y1="231.5" x2="124.0" y2="256.0" style="stroke:black; stroke-width:1px;" />
<line x1="124.0" y1="263.5" x2="114.0" y2="288.0" style="stroke:black; stroke-width:1px;" />
<line x1="124.0" y1="263.5" x2="134.0" y2="288.0" style="stroke:black; stroke-width:1px;" />
<line x1="134.0" y1="295.5" x2="124.0" y2="320.0" style="stroke:black; stroke-width:1px;" />
<line x1="134.0" y1="295.5" x2="144.0" y2="320.0" style="stroke:black; stroke-width:1px;" />
<line x1="144.0" y1="327.5" x2="134.0" y2="352.0" style="stroke:black; stroke-width:1px;" />
<line x1="144.0" y1="327.5" x2="154.0" y2="352.0" style="stroke:black; stroke-width:1px;" />
<line x1="154.0" y1="359.5" x2="144.0" y2="384.0" style="stroke:black; stroke-width:1px;" />
<line x1="154.0" y1="359.5" x2="164.0" y2="384.0" style="stroke:black; stroke-width:1px;" />
<line x1="164.0" y1="391.5" x2="153.75" y2="416.0" style="stroke:black; stroke-width:1px;" />
<line x1="164.0" y1="391.5" x2="174.25" y2="416.0" style="stroke:black; stroke-width:1px;" />
<line x1="174.25" y1="423.5" x2="163.5" y2="448.0" style="stroke:black; stroke-width:1px;" />
<line x1="174.25" y1="423.5" x2="185.0" y2="448.0" style="stroke:black; stroke-width:1px;" />
<line x1="185.0" y1="455.5" x2="185.0" y2="480.0" style="stroke:black; stroke-width:1px;" />
<rect x="129.0" y="352.0" width="10.0" height="15.0" style="fill:orange; stroke:rgb(0,0,0);" rx="1"/>
<text x="131" y="361" style="font-family:sans-serif;font-size:10px;">
#
</text>
<rect x="31.5" y="96.0" width="10.0" height="15.0" style="fill:orange; stroke:rgb(0,0,0);" rx="1"/>
<text x="33" y="105" style="font-family:sans-serif;font-size:10px;">
#
</text>
<rect x="126.0" y="288.0" width="16.0" height="15.0" style="fill:orange; stroke:rgb(0,0,0);" rx="1"/>
<text x="128" y="297" style="font-family:sans-serif;font-size:10px;">
s0
</text>
<rect x="98.5" y="224.0" width="26.0" height="15.0" style="fill:orange; stroke:rgb(0,0,0);" rx="1"/>
<text x="100" y="233" style="font-family:sans-serif;font-size:10px;">
start
</text>
<rect x="148.25" y="416.0" width="11.0" height="15.0" style="fill:orange; stroke:rgb(0,0,0);" rx="1"/>
<text x="150" y="425" style="font-family:sans-serif;font-size:10px;">
U
</text>
<rect x="48.5" y="96.0" width="26.0" height="15.0" style="fill:orange; stroke:rgb(0,0,0);" rx="1"/>
<text x="50" y="105" style="font-family:sans-serif;font-size:10px;">
start
</text>
<rect x="119.0" y="320.0" width="10.0" height="15.0" style="fill:orange; stroke:rgb(0,0,0);" rx="1"/>
<text x="121" y="329" style="font-family:sans-serif;font-size:10px;">
#
</text>
<rect x="86.0" y="192.0" width="26.0" height="15.0" style="fill:orange; stroke:rgb(0,0,0);" rx="1"/>
<text x="88" y="201" style="font-family:sans-serif;font-size:10px;">
start
</text>
<rect x="109.0" y="288.0" width="10.0" height="15.0" style="fill:orange; stroke:rgb(0,0,0);" rx="1"/>
<text x="111" y="297" style="font-family:sans-serif;font-size:10px;">
#
</text>
<rect x="160.0" y="448.0" width="7.0" height="15.0" style="fill:orange; stroke:rgb(0,0,0);" rx="1"/>
<text x="162" y="457" style="font-family:sans-serif;font-size:10px;">
t
</text>
<rect x="36.0" y="64.0" width="26.0" height="15.0" style="fill:orange; stroke:rgb(0,0,0);" rx="1"/>
<text x="38" y="73" style="font-family:sans-serif;font-size:10px;">
start
</text>
<rect x="44.0" y="128.0" width="10.0" height="15.0" style="fill:orange; stroke:rgb(0,0,0);" rx="1"/>
<text x="46" y="137" style="font-family:sans-serif;font-size:10px;">
#
</text>
<rect x="167.0" y="480.0" width="36.0" height="15.0" style="fill:orange; stroke:rgb(0,0,0);" rx="1"/>
<text x="169" y="489" style="font-family:sans-serif;font-size:10px;">
&lt;EOF&gt;
</text>
<rect x="14.5" y="32.0" width="26.0" height="15.0" style="fill:orange; stroke:rgb(0,0,0);" rx="1"/>
<text x="16" y="41" style="font-family:sans-serif;font-size:10px;">
start
</text>
<rect x="73.5" y="160.0" width="26.0" height="15.0" style="fill:orange; stroke:rgb(0,0,0);" rx="1"/>
<text x="75" y="169" style="font-family:sans-serif;font-size:10px;">
start
</text>
<rect x="69.0" y="192.0" width="10.0" height="15.0" style="fill:orange; stroke:rgb(0,0,0);" rx="1"/>
<text x="71" y="201" style="font-family:sans-serif;font-size:10px;">
#
</text>
<rect x="136.0" y="320.0" width="16.0" height="15.0" style="fill:orange; stroke:rgb(0,0,0);" rx="1"/>
<text x="138" y="329" style="font-family:sans-serif;font-size:10px;">
s2
</text>
<rect x="146.0" y="352.0" width="16.0" height="15.0" style="fill:orange; stroke:rgb(0,0,0);" rx="1"/>
<text x="148" y="361" style="font-family:sans-serif;font-size:10px;">
s5
</text>
<rect x="81.5" y="224.0" width="10.0" height="15.0" style="fill:orange; stroke:rgb(0,0,0);" rx="1"/>
<text x="83" y="233" style="font-family:sans-serif;font-size:10px;">
#
</text>
<rect x="56.5" y="160.0" width="10.0" height="15.0" style="fill:orange; stroke:rgb(0,0,0);" rx="1"/>
<text x="58" y="169" style="font-family:sans-serif;font-size:10px;">
#
</text>
<rect x="94.0" y="256.0" width="10.0" height="15.0" style="fill:orange; stroke:rgb(0,0,0);" rx="1"/>
<text x="96" y="265" style="font-family:sans-serif;font-size:10px;">
#
</text>
<rect x="156.0" y="384.0" width="16.0" height="15.0" style="fill:orange; stroke:rgb(0,0,0);" rx="1"/>
<text x="158" y="393" style="font-family:sans-serif;font-size:10px;">
s7
</text>
<rect x="19.0" y="64.0" width="10.0" height="15.0" style="fill:orange; stroke:rgb(0,0,0);" rx="1"/>
<text x="21" y="73" style="font-family:sans-serif;font-size:10px;">
#
</text>
<rect x="139.0" y="384.0" width="10.0" height="15.0" style="fill:orange; stroke:rgb(0,0,0);" rx="1"/>
<text x="141" y="393" style="font-family:sans-serif;font-size:10px;">
#
</text>
<rect x="0.0" y="64.0" width="12.0" height="15.0" style="fill:orange; stroke:rgb(0,0,0);" rx="1"/>
<text x="2" y="73" style="font-family:sans-serif;font-size:10px;">
A
</text>
<rect x="61.0" y="128.0" width="26.0" height="15.0" style="fill:orange; stroke:rgb(0,0,0);" rx="1"/>
<text x="63" y="137" style="font-family:sans-serif;font-size:10px;">
start
</text>
<rect x="166.25" y="416.0" width="16.0" height="15.0" style="fill:orange; stroke:rgb(0,0,0);" rx="1"/>
<text x="168" y="425" style="font-family:sans-serif;font-size:10px;">
s9
</text>
<rect x="111.0" y="256.0" width="26.0" height="15.0" style="fill:orange; stroke:rgb(0,0,0);" rx="1"/>
<text x="113" y="265" style="font-family:sans-serif;font-size:10px;">
start
</text>
<rect x="14.5" y="0.0" width="26.0" height="15.0" style="fill:orange; stroke:rgb(0,0,0);" rx="1"/>
<text x="16" y="9" style="font-family:sans-serif;font-size:10px;">
expr
</text>
<rect x="174.0" y="448.0" width="22.0" height="15.0" style="fill:orange; stroke:rgb(0,0,0);" rx="1"/>
<text x="176" y="457" style="font-family:sans-serif;font-size:10px;">
s10
</text>
</svg>